<?xml version="1.0" encoding="UTF-8"?>
<svg id="Layer_1" data-name="Layer 1" xmlns="http://www.w3.org/2000/svg" width="100" height="50" viewBox="0 0 100 50">
  <defs>
    <style>
      .cls-1 {
        fill: #000;
        stroke-width: 0px;
      }
    </style>
  </defs>
  <path class="cls-1" d="M3.34,4.13s14.52-1.99,21.55-2.75S59.55,0,67.2,0c30.38,0,32.8,4.02,32.8,4.02,0,0-1.08,17.62-1.08,18.54,0,.76.75,19.23,1,25.44.04,1.09-.84,1.99-1.94,1.97l-93.14-1.82c-1.85-.04-3.42-1.36-3.75-3.18-.68-3.68-1.62-9.41-1.09-10.33.78-1.38,1.54-9.32,1.24-11.01S1.58,4.37,3.34,4.13Z"/>
</svg>