<?xml version="1.0" encoding="UTF-8"?>
<svg id="Layer_1" data-name="Layer 1" xmlns="http://www.w3.org/2000/svg" width="144.01" height="113.73" viewBox="0 0 144.01 113.73">
  <defs>
    <style>
      .cls-1 {
        fill: #000;
        stroke-width: 0px;
      }
    </style>
  </defs>
  <path class="cls-1" d="M1.96,93.59s3.06-14.33,4.73-21.21,10.47-33.07,13.06-40.26C30.07,3.54,34.67,2.63,34.67,2.63c0,0,16.2,4,17.07,4.31.72.26,22.35,2.83,28.27,4.69,1.04.33,1.59,1.47,1.2,2.49l-36.33,84.99c-.66,1.72-2.44,2.75-4.26,2.45-3.69-.61-9.4,1.32-10.09.52-1.03-1.2-9.25.38-10.93.1S1.59,95.33,1.96,93.59Z"/>
  <path class="cls-1" d="M61.28,100.8s3.06-14.33,4.73-21.21,10.47-33.07,13.06-40.26c10.31-28.58,14.92-29.49,14.92-29.49,0,0,16.2,4,17.07,4.31.72.26,22.35,2.83,28.27,4.69,1.04.33,1.59,1.47,1.2,2.49l-36.33,84.99c-.66,1.72-2.44,2.75-4.26,2.45-3.69-.61-11.03-8.49-12.09-8.48-10.77.14-7.25,5.38-8.93,5.1s-17.99-2.86-17.62-4.59Z"/>
</svg>